<svg width="149" height="65" viewBox="0 0 149 65" fill="none" xmlns="http://www.w3.org/2000/svg">
<path d="M1.40625 37.6604V13.051H4.46484V23.7737H7.62891V26.762H4.46484V37.6604H1.40625ZM9.38672 26.762V23.7737H12.5156V13.051H15.6094V37.6604H12.5156V26.762H9.38672ZM18.3516 32.4573V23.7737C18.3516 22.6721 18.8438 21.594 19.8281 20.5393C21.0469 19.2737 22.5703 18.6409 24.3984 18.6409V21.4885C23.0156 21.4885 22.0547 22.0627 21.5156 23.2112C21.3516 23.5627 21.2695 23.9143 21.2695 24.2659V32.0002C21.2695 32.8674 21.668 33.6057 22.4648 34.2151C23.0273 34.637 23.6719 34.8479 24.3984 34.8479V37.6956C22.1719 37.6956 20.4492 36.7932 19.2305 34.9885C18.6445 34.0979 18.3516 33.2542 18.3516 32.4573ZM25.9102 37.6956V34.8479C27.1523 34.8479 28.043 34.2854 28.582 33.1604C28.7695 32.7854 28.8633 32.4221 28.8633 32.0706V24.2659C28.8633 23.3049 28.4531 22.5432 27.6328 21.9807C27.1172 21.6526 26.5312 21.4885 25.875 21.4885V18.6409C28.0312 18.6409 29.6953 19.5198 30.8672 21.2776C31.4531 22.1448 31.7461 22.9768 31.7461 23.7737V32.4573C31.7461 33.6057 31.2539 34.719 30.2695 35.7971C29.1211 37.0393 27.668 37.6721 25.9102 37.6956ZM34.418 32.5979V18.676H37.4062V32.2463C37.4062 33.0901 37.8281 33.7932 38.6719 34.3557C39.2344 34.7073 39.8555 34.8831 40.5352 34.8831V37.8362C38.2852 37.8362 36.5508 36.9573 35.332 35.1995C34.7227 34.3088 34.418 33.4417 34.418 32.5979ZM42.082 37.8362V34.8831C43.3477 34.8831 44.2734 34.3792 44.8594 33.3713C45.0703 32.9963 45.1758 32.6213 45.1758 32.2463V18.676H48.1641V32.5979C48.1641 33.6995 47.6602 34.7893 46.6523 35.8674C45.4336 37.1565 43.9102 37.8127 42.082 37.8362ZM50.2031 32.6682L52.9805 32.1409C52.9805 33.1956 53.5312 34.0276 54.6328 34.637C55.1719 34.8948 55.6875 35.0354 56.1797 35.0588V37.8362C53.9062 37.8362 52.207 37.0159 51.082 35.3752C50.4961 34.5081 50.2031 33.6057 50.2031 32.6682ZM50.3789 24.0198C50.3789 21.887 51.3516 20.3049 53.2969 19.2737C54.2344 18.7815 55.1719 18.5354 56.1094 18.5354V21.2776C55.0312 21.2776 54.1992 21.7229 53.6133 22.6135C53.3086 23.0588 53.1562 23.5276 53.1562 24.0198C53.1562 24.7698 53.7422 25.3792 54.9141 25.8479C55.8047 26.2229 57.5273 26.7151 60.082 27.3245C61.6758 27.6526 62.8125 28.4377 63.4922 29.6799C63.8438 30.3362 64.0195 31.0745 64.0195 31.8948C64.0195 34.1448 63.1172 35.8088 61.3125 36.887C60.2578 37.5198 59.0508 37.8362 57.6914 37.8362V35.0588C58.7695 35.0588 59.6719 34.6838 60.3984 33.9338C60.9141 33.3948 61.1719 32.762 61.1719 32.0354C61.1719 31.0979 60.2461 30.3479 58.3945 29.7854C57.9258 29.6448 57.1758 29.4456 56.1445 29.1877C55.043 28.9299 54.2461 28.719 53.7539 28.5549C51.9727 27.8518 50.8945 26.7854 50.5195 25.3557C50.4258 24.9338 50.3789 24.4885 50.3789 24.0198ZM57.6562 21.3127V18.5354C59.6719 18.5354 61.3008 19.2854 62.543 20.7854C63.3164 21.7463 63.7031 22.7542 63.7031 23.8088L60.9258 24.2659C60.9258 22.9768 60.2227 22.0745 58.8164 21.5588C58.3945 21.3948 58.0078 21.3127 57.6562 21.3127ZM66.0938 32.4573V23.7385C66.1172 22.6604 66.6328 21.594 67.6406 20.5393C68.8594 19.2971 70.3359 18.6643 72.0703 18.6409V21.4182C70.9453 21.4182 70.0664 21.9104 69.4336 22.8948C69.1758 23.3167 69.0469 23.7034 69.0469 24.0549V26.4456H76.9219V24.0549C76.9219 23.0002 76.3828 22.2268 75.3047 21.7346C74.8125 21.5002 74.3086 21.3831 73.793 21.3831V18.6409C75.4102 18.6409 76.8516 19.2151 78.1172 20.3635C79.1719 21.3713 79.7109 22.4846 79.7344 23.7034V29.2932H69.0469V32.4573C69.0469 33.1135 69.4219 33.7229 70.1719 34.2854C70.7812 34.7073 71.4258 34.9182 72.1055 34.9182V37.6604C69.9727 37.6604 68.2969 36.7932 67.0781 35.0588C66.4219 34.1448 66.0938 33.2776 66.0938 32.4573ZM73.793 37.6604V34.8831C75.1992 34.8831 76.2539 34.2737 76.957 33.0549C77.0977 32.7971 77.2031 32.551 77.2734 32.3167L79.7695 33.2307C79.3477 34.8479 78.3867 36.0667 76.8867 36.887C75.9258 37.4026 74.8945 37.6604 73.793 37.6604ZM81.4922 13.051H84.5859L90.8438 34.426L89.7188 37.6604H88.6289L81.4922 13.051ZM90.0703 26.094L94.4297 13.051H97.5234C97.3125 13.7307 96.4336 16.4495 94.8867 21.2073C93.082 26.7385 92.0508 29.9143 91.793 30.7346H91.4414L90.0703 26.094ZM99.2109 30.8049V19.2385C99.2109 17.9963 99.7383 16.7307 100.793 15.4417C102.199 13.7542 103.98 12.8987 106.137 12.8752V15.9338C104.707 15.9338 103.594 16.6604 102.797 18.1135C102.469 18.7463 102.305 19.3088 102.305 19.801V30.8049C102.305 32.2815 103.031 33.4299 104.484 34.2502C105.094 34.6018 105.633 34.7776 106.102 34.7776V37.8362C104.766 37.8362 103.43 37.3557 102.094 36.3948C100.195 34.9885 99.2344 33.1252 99.2109 30.8049ZM108.035 37.8362V34.7776C108.855 34.7776 109.688 34.4143 110.531 33.6877C111.422 32.8909 111.879 31.9299 111.902 30.8049V19.801C111.902 18.887 111.527 18.0081 110.777 17.1643C110.004 16.3674 109.09 15.9573 108.035 15.9338V12.8752C110.402 12.8752 112.301 13.8948 113.73 15.9338C114.551 17.1057 114.961 18.2073 114.961 19.2385V30.8049C114.961 33.4065 113.801 35.3987 111.48 36.7815C110.262 37.4846 109.113 37.8362 108.035 37.8362ZM117.809 37.6604H120.867V13.051H117.809V37.6604ZM122.625 26.6565H126.422C129.492 26.6331 131.414 25.4612 132.188 23.1409C132.492 22.2034 132.645 21.0901 132.645 19.801C132.645 15.512 130.711 13.262 126.844 13.051C126.703 13.051 126.562 13.051 126.422 13.051H122.625V16.0042H125.93C128.297 16.051 129.492 17.3167 129.516 19.801C129.469 22.3557 128.285 23.6448 125.965 23.6682H122.625V26.6565Z" fill="white"/>
<path d="M0.312 62.1887L3.624 57.7967L0.516 53.6687H1.5L4.332 57.4607H5.496V53.6687H6.324V57.4607H7.476L10.32 53.6687H11.304L8.184 57.7967L11.496 62.1887H10.524L7.5 58.2287H6.324V62.1887H5.496V58.2287H4.308L1.284 62.1887H0.312ZM14.3802 62.1887V53.6687H15.2082V61.0367L20.4882 53.6687H21.2682V62.1887H20.4402V54.9527L15.2202 62.1887H14.3802ZM30.6494 62.1887V54.4127H27.1694L27.1214 56.2127C27.0814 57.3887 26.9974 58.3647 26.8694 59.1407C26.7414 59.9167 26.5614 60.5287 26.3294 60.9767C26.0974 61.4167 25.8094 61.7327 25.4654 61.9247C25.1294 62.1087 24.7334 62.2007 24.2774 62.2007V61.4567C24.5894 61.4567 24.8654 61.3767 25.1054 61.2167C25.3454 61.0567 25.5494 60.7767 25.7174 60.3767C25.8854 59.9767 26.0174 59.4247 26.1134 58.7207C26.2174 58.0087 26.2854 57.1087 26.3174 56.0207L26.3894 53.6687H31.4774V62.1887H30.6494ZM38.4802 62.2487C37.8802 62.2487 37.3362 62.1287 36.8482 61.8887C36.3602 61.6407 35.9402 61.3127 35.5882 60.9047C35.2362 60.4967 34.9642 60.0367 34.7722 59.5247C34.5802 59.0047 34.4842 58.4727 34.4842 57.9287C34.4842 57.3607 34.5842 56.8207 34.7842 56.3087C34.9842 55.7887 35.2642 55.3287 35.6242 54.9287C35.9922 54.5207 36.4202 54.2007 36.9082 53.9687C37.3962 53.7287 37.9242 53.6087 38.4922 53.6087C39.0842 53.6087 39.6242 53.7327 40.1122 53.9807C40.6002 54.2287 41.0202 54.5607 41.3722 54.9767C41.7322 55.3927 42.0042 55.8567 42.1882 56.3687C42.3802 56.8807 42.4762 57.4047 42.4762 57.9407C42.4762 58.5087 42.3762 59.0527 42.1762 59.5727C41.9762 60.0847 41.6962 60.5447 41.3362 60.9527C40.9762 61.3527 40.5522 61.6687 40.0642 61.9007C39.5762 62.1327 39.0482 62.2487 38.4802 62.2487ZM35.3242 57.9287C35.3242 58.3927 35.4002 58.8367 35.5522 59.2607C35.7042 59.6847 35.9202 60.0647 36.2002 60.4007C36.4802 60.7367 36.8122 61.0047 37.1962 61.2047C37.5882 61.3967 38.0162 61.4927 38.4802 61.4927C38.9682 61.4927 39.4042 61.3927 39.7882 61.1927C40.1802 60.9847 40.5122 60.7087 40.7842 60.3647C41.0642 60.0207 41.2762 59.6407 41.4202 59.2247C41.5642 58.8007 41.6362 58.3687 41.6362 57.9287C41.6362 57.4647 41.5602 57.0207 41.4082 56.5967C41.2562 56.1727 41.0362 55.7927 40.7482 55.4567C40.4682 55.1207 40.1362 54.8567 39.7522 54.6647C39.3682 54.4727 38.9442 54.3767 38.4802 54.3767C38.0002 54.3767 37.5642 54.4767 37.1722 54.6767C36.7882 54.8767 36.4562 55.1487 36.1762 55.4927C35.9042 55.8287 35.6922 56.2087 35.5402 56.6327C35.3962 57.0567 35.3242 57.4887 35.3242 57.9287ZM45.5479 62.1887V53.6687H46.3759V61.0367L51.6559 53.6687H52.4359V62.1887H51.6079V54.9527L46.3879 62.1887H45.5479ZM49.0039 52.9487C48.4119 52.9487 47.9639 52.8207 47.6599 52.5647C47.3559 52.3087 47.1999 51.9967 47.1919 51.6287H47.8519C47.8599 51.8367 47.9439 52.0247 48.1039 52.1927C48.2719 52.3607 48.5719 52.4447 49.0039 52.4447C49.4279 52.4447 49.7199 52.3687 49.8799 52.2167C50.0479 52.0567 50.1359 51.8607 50.1439 51.6287H50.8039C50.7959 51.9967 50.6399 52.3087 50.3359 52.5647C50.0399 52.8207 49.5959 52.9487 49.0039 52.9487ZM60.5557 62.1887V53.6687H61.3957V57.4607H62.6797L65.6077 53.6687H66.5797L63.3757 57.7967L66.7837 62.1887H65.7517L62.7037 58.2287H61.3957V62.1887H60.5557ZM72.5644 62.2487C71.9644 62.2487 71.4204 62.1287 70.9324 61.8887C70.4444 61.6407 70.0244 61.3127 69.6724 60.9047C69.3204 60.4967 69.0484 60.0367 68.8564 59.5247C68.6644 59.0047 68.5684 58.4727 68.5684 57.9287C68.5684 57.3607 68.6684 56.8207 68.8684 56.3087C69.0684 55.7887 69.3484 55.3287 69.7084 54.9287C70.0764 54.5207 70.5044 54.2007 70.9924 53.9687C71.4804 53.7287 72.0084 53.6087 72.5764 53.6087C73.1684 53.6087 73.7084 53.7327 74.1964 53.9807C74.6844 54.2287 75.1044 54.5607 75.4564 54.9767C75.8164 55.3927 76.0884 55.8567 76.2724 56.3687C76.4644 56.8807 76.5604 57.4047 76.5604 57.9407C76.5604 58.5087 76.4604 59.0527 76.2604 59.5727C76.0604 60.0847 75.7804 60.5447 75.4204 60.9527C75.0604 61.3527 74.6364 61.6687 74.1484 61.9007C73.6604 62.1327 73.1324 62.2487 72.5644 62.2487ZM69.4084 57.9287C69.4084 58.3927 69.4844 58.8367 69.6364 59.2607C69.7884 59.6847 70.0044 60.0647 70.2844 60.4007C70.5644 60.7367 70.8964 61.0047 71.2804 61.2047C71.6724 61.3967 72.1004 61.4927 72.5644 61.4927C73.0524 61.4927 73.4884 61.3927 73.8724 61.1927C74.2644 60.9847 74.5964 60.7087 74.8684 60.3647C75.1484 60.0207 75.3604 59.6407 75.5044 59.2247C75.6484 58.8007 75.7204 58.3687 75.7204 57.9287C75.7204 57.4647 75.6444 57.0207 75.4924 56.5967C75.3404 56.1727 75.1204 55.7927 74.8324 55.4567C74.5524 55.1207 74.2204 54.8567 73.8364 54.6647C73.4524 54.4727 73.0284 54.3767 72.5644 54.3767C72.0844 54.3767 71.6484 54.4767 71.2564 54.6767C70.8724 54.8767 70.5404 55.1487 70.2604 55.4927C69.9884 55.8287 69.7764 56.2087 69.6244 56.6327C69.4804 57.0567 69.4084 57.4887 69.4084 57.9287ZM87.1321 62.1887V55.2527L84.0481 60.6407H83.5201L80.4241 55.2527V62.1887H79.5841V53.6687H80.4481L83.7721 59.5007L87.1201 53.6687H87.9721V62.1887H87.1321ZM91.5475 62.1887V53.6687H97.9795V62.1887H97.1395V54.4127H92.3875V62.1887H91.5475ZM107.314 62.1887V54.4127H103.834L103.786 56.2127C103.746 57.3887 103.662 58.3647 103.534 59.1407C103.406 59.9167 103.226 60.5287 102.994 60.9767C102.762 61.4167 102.474 61.7327 102.13 61.9247C101.794 62.1087 101.398 62.2007 100.942 62.2007V61.4567C101.254 61.4567 101.53 61.3767 101.77 61.2167C102.01 61.0567 102.214 60.7767 102.382 60.3767C102.55 59.9767 102.682 59.4247 102.778 58.7207C102.882 58.0087 102.95 57.1087 102.982 56.0207L103.054 53.6687H108.142V62.1887H107.314ZM117.437 61.4447V62.1887H111.713V53.6687H117.329V54.4127H112.553V57.4847H116.717V58.1927H112.553V61.4447H117.437ZM120.465 62.1887V53.6687H121.305V57.4607H122.589L125.517 53.6687H126.489L123.285 57.7967L126.693 62.1887H125.661L122.613 58.2287H121.305V62.1887H120.465ZM128.478 57.8687C128.478 57.3567 128.566 56.8487 128.742 56.3447C128.926 55.8407 129.19 55.3847 129.534 54.9767C129.878 54.5607 130.302 54.2327 130.806 53.9927C131.31 53.7447 131.882 53.6207 132.522 53.6207C133.274 53.6207 133.922 53.7967 134.466 54.1487C135.01 54.4927 135.41 54.9367 135.666 55.4807L135.006 55.8887C134.822 55.5127 134.59 55.2167 134.31 55.0007C134.03 54.7767 133.73 54.6167 133.41 54.5207C133.098 54.4247 132.786 54.3767 132.474 54.3767C131.962 54.3767 131.51 54.4807 131.118 54.6887C130.726 54.8887 130.394 55.1607 130.122 55.5047C129.858 55.8487 129.658 56.2287 129.522 56.6447C129.386 57.0607 129.318 57.4847 129.318 57.9167C129.318 58.3887 129.398 58.8407 129.558 59.2727C129.718 59.6967 129.942 60.0767 130.23 60.4127C130.518 60.7487 130.854 61.0167 131.238 61.2167C131.63 61.4087 132.054 61.5047 132.51 61.5047C132.83 61.5047 133.158 61.4487 133.494 61.3367C133.83 61.2247 134.142 61.0527 134.43 60.8207C134.718 60.5887 134.954 60.2887 135.138 59.9207L135.834 60.2807C135.65 60.7047 135.374 61.0647 135.006 61.3607C134.646 61.6567 134.238 61.8807 133.782 62.0327C133.334 62.1847 132.894 62.2607 132.462 62.2607C131.878 62.2607 131.342 62.1367 130.854 61.8887C130.366 61.6327 129.942 61.2967 129.582 60.8807C129.23 60.4567 128.958 59.9847 128.766 59.4647C128.574 58.9367 128.478 58.4047 128.478 57.8687Z" fill="white"/>
</svg>
