<svg width="40" height="40" viewBox="0 0 40 40" fill="none" xmlns="http://www.w3.org/2000/svg">
<g clip-path="url(#clip0)">
<path d="M19.9689 0.21698C13.4811 0.21698 8.20313 5.34562 8.20313 11.6497V27.6521C8.20313 33.9563 13.4811 39.0849 19.9689 39.0849C26.4566 39.0849 31.7346 33.9563 31.7346 27.6521V11.6497C31.7346 5.34562 26.4566 0.21698 19.9689 0.21698ZM29.3347 27.6521C29.3347 32.6702 25.1331 36.7529 19.9689 36.7529C14.8047 36.7529 10.603 32.6702 10.603 27.6521V11.6497C10.603 6.63171 14.8047 2.54896 19.9689 2.54896C25.1331 2.54896 29.3347 6.63171 29.3347 11.6497V27.6521Z" fill="#D4C17F"/>
<path d="M19.9692 7.94894C19.3063 7.94894 18.7692 8.47085 18.7692 9.11493V14.4817C18.7692 15.1255 19.3063 15.6477 19.9692 15.6477C20.6317 15.6477 21.1691 15.1255 21.1691 14.4817V9.11493C21.1691 8.47085 20.632 7.94894 19.9692 7.94894Z" fill="#D4C17F"/>
</g>
<defs>
<clipPath id="clip0">
<rect width="40" height="38.8679" fill="white" transform="translate(0 0.21698)"/>
</clipPath>
</defs>
</svg>
